# xmcd CD database file
# Copyright (C) 1993-1998 Ti Kan
#
# Track frame offsets:
#  150
#  12587
#  42595
#  55038
#  70753
#  82070
#  99232
#  110435
#  126618
#  154003
#  176590
#  194998
#  216180
#
# Disc length: 3005 seconds
#
# Revision: 1
# Processed by: cddbd v1.4b41PL1 Copyright (c) Steve Scherf et al.
# Submitted via: CDWizzard Release:4.61
#
DISCID=c00bbb0d
DTITLE=Various Artist - Blues Voices
DYEAR=1900
DGENRE=
TTITLE0=Honest I Do (Jimmy Reed)
TTITLE1=Young Men Don't Get The Blues (Gregg Smith)
TTITLE2=Rockin' Chair Blues (Ray Charles)
TTITLE3=Come Here Mama (Rufus Thomas)
TTITLE4=Boom Boom (John Lee Hooker)
TTITLE5=Nobody's Business But Mine (Mississippi John Hurt)
TTITLE6=My Babe (The Tymes)
TTITLE7=Song For Frank (Skeleton Crew)
TTITLE8=It's Hard For Me To Believe Baby (Little Walter and Otis Rush)
TTITLE9=Early On Sunday (Roberto Ciotti)
TTITLE10=Hoodoo Blues (Lightning Slim)
TTITLE11=Women Lovin' Each Other (Mike Bloomfield)
TTITLE12=Ain't No Sunshine (All Jarreau)
EXTD=
EXTT0=
EXTT1=
EXTT2=
EXTT3=
EXTT4=
EXTT5=
EXTT6=
EXTT7=
EXTT8=
EXTT9=
EXTT10=
EXTT11=
EXTT12=
PLAYORDER=
